<svg xmlns="http://www.w3.org/2000/svg" xmlns:xlink="http://www.w3.org/1999/xlink" width="298.725" height="233.192" viewBox="0 0 298.725 233.192">
  <defs>
    <clipPath id="clip-path">
      <rect id="Rectangle_19139" data-name="Rectangle 19139" width="31.788" height="86.32" fill="#fff" stroke="#263238" stroke-width="1"/>
    </clipPath>
    <clipPath id="clip-path-2">
      <ellipse id="Ellipse_127" data-name="Ellipse 127" cx="15.026" cy="22.116" rx="15.026" ry="22.116" fill="#263238" stroke="#263238" stroke-linecap="round" stroke-linejoin="round" stroke-width="1"/>
    </clipPath>
    <clipPath id="clip-path-3">
      <ellipse id="Ellipse_132" data-name="Ellipse 132" cx="9.563" cy="22.116" rx="9.563" ry="22.116" fill="#263238" stroke="#263238" stroke-linecap="round" stroke-linejoin="round" stroke-width="1"/>
    </clipPath>
    <clipPath id="clip-path-4">
      <path id="Path_11158" data-name="Path 11158" d="M253.133,344.375c0-17.623,6.122-31.909,13.675-31.909s13.676,14.286,13.676,31.909c0,.968-.022,1.923-.058,2.87h48.722q-.039-1.419-.042-2.87c0-17.623,4.459-31.909,9.961-31.909,3.676,0,6.884,6.383,8.61,15.872V302.314a5.08,5.08,0,0,0-4.151-5l-.238-.046c-3.377-.675-9.454-7.091-18.909-15.195s-17.9-8.779-17.9-8.779h-85.3a7.287,7.287,0,0,0-4.454,1.518l-29.1,22.455s-26,5.064-31.74,10.8-5.065,39.168-5.065,39.168H253.191C253.155,346.3,253.133,345.343,253.133,344.375Z" transform="translate(-150.799 -273.299)" fill="#c6ff00" stroke="#263238" stroke-linecap="round" stroke-linejoin="round" stroke-width="1"/>
    </clipPath>
    <clipPath id="clip-path-5">
      <path id="Path_11168" data-name="Path 11168" d="M305.256,298.171h49.973s7.091-2.364,5.065-11.143c-.688-2.979-14.856-9.792-16.883-9.792H319.1Z" transform="translate(-305.256 -277.236)" fill="#263238" stroke="#263238" stroke-linecap="round" stroke-linejoin="round" stroke-width="1"/>
    </clipPath>
  </defs>
  <g id="Group_13793" data-name="Group 13793" transform="translate(-60.219 -87.86)">
    <g id="Background_Simple" data-name="Background Simple" transform="translate(63.044 87.86)">
      <g id="Group_13768" data-name="Group 13768">
        <path id="Path_11118" data-name="Path 11118" d="M348.121,187.155a109.721,109.721,0,0,0-11.1-32.574c-9.434-17.73-26.524-44.71-47.608-55.2-32.576-16.209-63.385-16.981-93.346,8.49s-53.138,98.024-64.227,110.374S90.45,232.909,77.224,252.2,63.731,317.04,63.731,317.04H352.639S361.354,262.391,348.121,187.155Z" transform="translate(-63.731 -87.86)" fill="#439c39"/>
        <path id="Path_11119" data-name="Path 11119" d="M348.121,187.155a109.721,109.721,0,0,0-11.1-32.574c-9.434-17.73-26.524-44.71-47.608-55.2-32.576-16.209-63.385-16.981-93.346,8.49s-53.138,98.024-64.227,110.374S90.45,232.909,77.224,252.2,63.731,317.04,63.731,317.04H352.639S361.354,262.391,348.121,187.155Z" transform="translate(-63.731 -87.86)" fill="#fff" opacity="0.8"/>
      </g>
      <g id="Group_13769" data-name="Group 13769" transform="translate(173.021 50.918)">
        <path id="Path_11120" data-name="Path 11120" d="M364.562,174.49c-3.442-1.877-5.007-.313-6.259-1.877s3.442-5.633-5.945-9.7c0,0-.625-8.762-13.455-9.075s-9.388,8.761-12.83,10.952-4.381-1.251-7.823.939-1.877,6.571-4.694,7.2-6.571-2.816-10.013-.626-3.442,4.068-5.007,4.068-4.694-1.251-6.571,0-4.068,2.816-4.068,2.816h79.168S368,176.367,364.562,174.49Z" transform="translate(-287.897 -153.83)" fill="#fff"/>
        <path id="Path_11121" data-name="Path 11121" d="M364.562,174.49c-3.442-1.877-5.007-.313-6.259-1.877s3.442-5.633-5.945-9.7c0,0-.625-8.762-13.455-9.075s-9.388,8.761-12.83,10.952-4.381-1.251-7.823.939-1.877,6.571-4.694,7.2-6.571-2.816-10.013-.626-3.442,4.068-5.007,4.068-4.694-1.251-6.571,0-4.068,2.816-4.068,2.816h79.168S368,176.367,364.562,174.49Z" transform="translate(-287.897 -153.83)" fill="#fff" opacity="0.5"/>
      </g>
      <g id="Group_13770" data-name="Group 13770" transform="translate(136.002 16.953)">
        <path id="Path_11122" data-name="Path 11122" d="M285.373,122.069c-2.041-1.113-2.968-.186-3.709-1.113s2.04-3.338-3.523-5.749c0,0-.371-5.193-7.975-5.378s-5.564,5.193-7.6,6.491-2.6-.742-4.636.556-1.113,3.895-2.782,4.265-3.895-1.669-5.935-.37-2.04,2.41-2.968,2.41-2.782-.742-3.894,0-2.411,1.669-2.411,1.669h46.921S287.413,123.182,285.373,122.069Z" transform="translate(-239.935 -109.824)" fill="#fff"/>
        <path id="Path_11123" data-name="Path 11123" d="M285.373,122.069c-2.041-1.113-2.968-.186-3.709-1.113s2.04-3.338-3.523-5.749c0,0-.371-5.193-7.975-5.378s-5.564,5.193-7.6,6.491-2.6-.742-4.636.556-1.113,3.895-2.782,4.265-3.895-1.669-5.935-.37-2.04,2.41-2.968,2.41-2.782-.742-3.894,0-2.411,1.669-2.411,1.669h46.921S287.413,123.182,285.373,122.069Z" transform="translate(-239.935 -109.824)" fill="#fff" opacity="0.5"/>
      </g>
      <g id="Group_13771" data-name="Group 13771" transform="translate(112.837 91.438)">
        <path id="Path_11124" data-name="Path 11124" d="M255.36,218.572c-2.04-1.112-2.967-.185-3.709-1.112s2.04-3.338-3.524-5.749c0,0-.371-5.193-7.975-5.378s-5.563,5.193-7.6,6.491-2.6-.742-4.636.557-1.113,3.895-2.782,4.265-3.895-1.669-5.935-.37-2.041,2.41-2.968,2.41-2.782-.742-3.895,0-2.41,1.67-2.41,1.67h46.921S257.4,219.685,255.36,218.572Z" transform="translate(-209.923 -206.327)" fill="#fff"/>
        <path id="Path_11125" data-name="Path 11125" d="M255.36,218.572c-2.04-1.112-2.967-.185-3.709-1.112s2.04-3.338-3.524-5.749c0,0-.371-5.193-7.975-5.378s-5.563,5.193-7.6,6.491-2.6-.742-4.636.557-1.113,3.895-2.782,4.265-3.895-1.669-5.935-.37-2.041,2.41-2.968,2.41-2.782-.742-3.895,0-2.41,1.67-2.41,1.67h46.921S257.4,219.685,255.36,218.572Z" transform="translate(-209.923 -206.327)" fill="#fff" opacity="0.5"/>
      </g>
    </g>
    <g id="Trees" transform="translate(125.078 127.123)">
      <g id="Group_13772" data-name="Group 13772" transform="translate(163.465 32.363)">
        <path id="Path_11126" data-name="Path 11126" d="M356.9,337.647h39.777c-.763-4.866-3.889-4.01-4.3-11.548-.208-3.8,3.305-8.495,3-13.483-.251-4.108-4.3-8.32-4.616-13.019-.283-4.242,3.174-8.949,2.838-13.52-.317-4.322-4.423-8.468-4.787-12.959-.355-4.382,3.031-9.136,2.633-13.565s-4.579-8.5-5.022-12.868c-.455-4.489,2.821-9.322,2.319-13.62-.532-4.561-4.835-8.5-5.418-12.7-.65-4.678,2.4-9.676,1.685-13.716-.875-4.949-5.48-8.53-6.45-12.18-1.805-6.8-1.58-13.359-3.712-13.786-2.277-.455-2.8,5.972-4.521,13.156-.867,3.608-5.371,7.265-6.111,12.217-.6,4.01,2.585,8.885,2.063,13.545-.467,4.173-4.661,8.184-5.069,12.719-.384,4.267,3.02,8.971,2.685,13.432-.326,4.335-4.4,8.471-4.677,12.874s3.229,9.017,2.99,13.366c-.245,4.456-4.241,8.665-4.447,12.953-.216,4.535,3.362,9.109,3.188,13.317-.193,4.661-4.134,8.933-4.279,13.009-.175,4.947,3.457,9.513,3.345,13.279-.243,8.175-3.986,6.482-4.121,13.06Z" transform="translate(-355.887 -180.658)" fill="#96c591"/>
        <line id="Line_1" data-name="Line 1" y2="142.056" transform="translate(18.085 13.097)" fill="none" stroke="#263238" stroke-width="1"/>
        <path id="Path_11127" data-name="Path 11127" d="M383.885,216.485l-6.476,5.593-5.3-7.065" transform="translate(-359.589 -188.497)" fill="none" stroke="#263238" stroke-width="1"/>
        <path id="Path_11128" data-name="Path 11128" d="M383.885,248.52l-6.476,5.593-5.3-7.065" transform="translate(-359.589 -195.806)" fill="none" stroke="#263238" stroke-width="1"/>
        <path id="Path_11129" data-name="Path 11129" d="M383.885,278.649l-6.476,5.593-5.3-7.065" transform="translate(-359.589 -202.68)" fill="none" stroke="#263238" stroke-width="1"/>
        <path id="Path_11130" data-name="Path 11130" d="M383.885,314.5l-6.476,5.593-5.3-7.065" transform="translate(-359.589 -210.859)" fill="none" stroke="#263238" stroke-width="1"/>
        <path id="Path_11131" data-name="Path 11131" d="M383.885,350.728l-6.476,5.593-5.3-7.065" transform="translate(-359.589 -219.125)" fill="none" stroke="#263238" stroke-width="1"/>
      </g>
      <g id="Group_13773" data-name="Group 13773" transform="translate(121.754 53.219)">
        <path id="Path_11132" data-name="Path 11132" d="M302.721,343.812h34.493c-.663-4.22-3.372-3.477-3.732-10.014-.181-3.292,2.866-7.366,2.6-11.692-.217-3.563-3.73-7.215-4-11.29-.246-3.678,2.752-7.759,2.461-11.724-.275-3.747-3.835-7.343-4.151-11.237-.307-3.8,2.629-7.923,2.283-11.763s-3.971-7.373-4.355-11.159c-.394-3.893,2.446-8.084,2.011-11.811-.462-3.955-4.193-7.371-4.7-11.014-.563-4.057,2.079-8.391,1.461-11.893-.758-4.292-4.752-7.4-5.593-10.562-1.565-5.9-1.37-11.585-3.219-11.954-1.974-.4-2.424,5.178-3.921,11.408-.751,3.129-4.657,6.3-5.3,10.594-.519,3.477,2.241,7.705,1.789,11.746-.405,3.618-4.042,7.1-4.4,11.029-.333,3.7,2.62,7.779,2.329,11.647-.283,3.76-3.812,7.346-4.056,11.164s2.8,7.82,2.593,11.591c-.213,3.864-3.679,7.513-3.856,11.233-.188,3.932,2.915,7.9,2.765,11.548-.167,4.042-3.585,7.747-3.711,11.28-.152,4.29,3,8.249,2.9,11.514-.211,7.089-3.456,5.621-3.573,11.326Z" transform="translate(-301.846 -207.679)" fill="#96c591"/>
        <line id="Line_2" data-name="Line 2" y2="123.184" transform="translate(15.682 11.357)" fill="none" stroke="#263238" stroke-width="1"/>
        <path id="Path_11133" data-name="Path 11133" d="M326.124,238.746l-5.616,4.85-4.594-6.126" transform="translate(-305.056 -214.476)" fill="none" stroke="#263238" stroke-width="1"/>
        <path id="Path_11134" data-name="Path 11134" d="M326.124,266.526l-5.616,4.85-4.594-6.126" transform="translate(-305.056 -220.814)" fill="none" stroke="#263238" stroke-width="1"/>
        <path id="Path_11135" data-name="Path 11135" d="M326.124,292.652l-5.616,4.85-4.594-6.126" transform="translate(-305.056 -226.775)" fill="none" stroke="#263238" stroke-width="1"/>
        <path id="Path_11136" data-name="Path 11136" d="M326.124,323.738l-5.616,4.85-4.594-6.126" transform="translate(-305.056 -233.868)" fill="none" stroke="#263238" stroke-width="1"/>
        <path id="Path_11137" data-name="Path 11137" d="M326.124,355.155,320.508,360l-4.594-6.126" transform="translate(-305.056 -241.036)" fill="none" stroke="#263238" stroke-width="1"/>
      </g>
      <g id="Group_13774" data-name="Group 13774">
        <path id="Path_11138" data-name="Path 11138" d="M145.32,328.081H193.3c-.922-5.869-4.69-4.836-5.19-13.929-.252-4.579,3.986-10.247,3.619-16.263-.3-4.955-5.188-10.036-5.567-15.7-.342-5.116,3.828-10.793,3.423-16.306-.383-5.212-5.335-10.214-5.773-15.631-.428-5.285,3.655-11.02,3.175-16.362s-5.523-10.254-6.057-15.521c-.55-5.414,3.4-11.244,2.8-16.427-.641-5.5-5.832-10.253-6.536-15.32-.783-5.643,2.893-11.671,2.032-16.543-1.054-5.97-6.61-10.289-7.779-14.691-2.178-8.2-1.906-16.113-4.477-16.627-2.746-.55-3.371,7.2-5.453,15.868-1.045,4.352-6.479,8.763-7.371,14.735-.723,4.836,3.117,10.718,2.488,16.338-.564,5.032-5.623,9.871-6.115,15.341-.463,5.146,3.644,10.82,3.239,16.2-.393,5.229-5.3,10.218-5.641,15.529s3.895,10.876,3.606,16.121c-.3,5.375-5.116,10.452-5.363,15.624-.261,5.469,4.055,10.987,3.845,16.063-.232,5.622-4.986,10.774-5.161,15.689-.211,5.967,4.17,11.474,4.034,16.016-.293,9.861-4.807,7.818-4.97,15.753Z" transform="translate(-144.102 -138.729)" fill="#96c591"/>
        <line id="Line_3" data-name="Line 3" y2="171.341" transform="translate(21.814 15.796)" fill="none" stroke="#263238" stroke-width="1"/>
        <path id="Path_11139" data-name="Path 11139" d="M177.872,181.941l-7.811,6.746-6.391-8.521" transform="translate(-148.567 -148.183)" fill="none" stroke="#263238" stroke-width="1"/>
        <path id="Path_11140" data-name="Path 11140" d="M177.872,220.58l-7.811,6.746L163.67,218.8" transform="translate(-148.567 -156.999)" fill="none" stroke="#263238" stroke-width="1"/>
        <path id="Path_11141" data-name="Path 11141" d="M177.872,256.92l-7.811,6.746-6.391-8.521" transform="translate(-148.567 -165.29)" fill="none" stroke="#263238" stroke-width="1"/>
        <path id="Path_11142" data-name="Path 11142" d="M177.872,300.159l-7.811,6.746-6.391-8.521" transform="translate(-148.567 -175.155)" fill="none" stroke="#263238" stroke-width="1"/>
        <path id="Path_11143" data-name="Path 11143" d="M177.872,343.858l-7.811,6.746-6.391-8.521" transform="translate(-148.567 -185.126)" fill="none" stroke="#263238" stroke-width="1"/>
      </g>
    </g>
    <g id="Charging_Station" data-name="Charging Station" transform="translate(60.719 209.397)">
      <g id="Group_13779" data-name="Group 13779" transform="translate(20.321)">
        <path id="Path_11144" data-name="Path 11144" d="M132.01,315.364v41.808a7.59,7.59,0,0,0,7.59,7.59h86.7a7.589,7.589,0,0,0,7.59-7.59v-4.76" transform="translate(-97.305 -261.303)" fill="none" stroke="#263238" stroke-linecap="round" stroke-linejoin="round" stroke-width="2"/>
        <rect id="Rectangle_19137" data-name="Rectangle 19137" width="6.458" height="4.759" transform="translate(30.977 45.895)" fill="#263238" stroke="#263238" stroke-linecap="round" stroke-linejoin="round" stroke-width="1"/>
        <g id="Group_13776" data-name="Group 13776" transform="translate(0 23.062)">
          <rect id="Rectangle_19138" data-name="Rectangle 19138" width="31.788" height="86.32" fill="#fff"/>
          <g id="Group_13775" data-name="Group 13775" clip-path="url(#clip-path)">
            <path id="Path_11146" data-name="Path 11146" d="M87.047,361.523h14.181v-74.9l-.087-11.425H87.047Z" transform="translate(-86.956 -275.203)" fill="#96c591" opacity="0.5"/>
            <path id="Path_11147" data-name="Path 11147" d="M110.654,326.929h-2.235l1.647-4.469H104.7l-2.305,6.257h1.612l-2.8,7.6Z" transform="translate(-90.278 -285.985)" fill="#263238"/>
          </g>
          <rect id="Rectangle_19140" data-name="Rectangle 19140" width="31.788" height="86.32" fill="none" stroke="#263238" stroke-width="1"/>
        </g>
        <ellipse id="Ellipse_124" data-name="Ellipse 124" cx="15.894" cy="24.291" rx="15.894" ry="24.291" fill="#fff" stroke="#263238" stroke-linecap="round" stroke-linejoin="round" stroke-width="1"/>
        <rect id="Rectangle_19141" data-name="Rectangle 19141" width="9.857" height="7.818" rx="1.569" transform="translate(10.965 16.663)" fill="#439c39" stroke="#263238" stroke-linecap="round" stroke-linejoin="round" stroke-width="1"/>
        <g id="Group_13777" data-name="Group 13777" transform="translate(10.456 33.318)">
          <path id="Path_11148" data-name="Path 11148" d="M111.469,293.929a5.438,5.438,0,1,0-5.438,5.438A5.438,5.438,0,0,0,111.469,293.929Z" transform="translate(-100.593 -288.49)" fill="#263238" stroke="#263238" stroke-linecap="round" stroke-linejoin="round" stroke-width="1"/>
          <path id="Path_11149" data-name="Path 11149" d="M109.554,294.733a2.719,2.719,0,1,0-2.719,2.718A2.719,2.719,0,0,0,109.554,294.733Z" transform="translate(-101.397 -289.294)" fill="#fff" opacity="0.2"/>
        </g>
        <g id="Group_13778" data-name="Group 13778" transform="translate(14.195 6.127)">
          <path id="Path_11150" data-name="Path 11150" d="M108.835,254.96a1.7,1.7,0,1,0-1.7,1.7A1.7,1.7,0,0,0,108.835,254.96Z" transform="translate(-105.437 -253.261)" fill="#263238" stroke="#263238" stroke-linecap="round" stroke-linejoin="round" stroke-width="1"/>
        </g>
      </g>
      <rect id="Rectangle_19142" data-name="Rectangle 19142" width="2.816" height="4.759" transform="translate(53.658 50.213)" fill="#263238" stroke="#263238" stroke-linecap="round" stroke-linejoin="round" stroke-width="1"/>
      <rect id="Rectangle_19143" data-name="Rectangle 19143" width="31.788" height="15.902" transform="translate(20.321 93.481)" fill="#439c39" stroke="#263238" stroke-linecap="round" stroke-linejoin="round" stroke-width="1"/>
      <rect id="Rectangle_19144" data-name="Rectangle 19144" width="297.725" height="5.778" transform="translate(0 104.018)" fill="#fff" stroke="#263238" stroke-linecap="round" stroke-linejoin="round" stroke-width="1"/>
      <rect id="Rectangle_19145" data-name="Rectangle 19145" width="297.725" height="2.719" transform="translate(0 108.436)" fill="#263238" stroke="#263238" stroke-linecap="round" stroke-linejoin="round" stroke-width="1"/>
    </g>
    <g id="Car" transform="translate(130.247 230.99)">
      <g id="Group_13792" data-name="Group 13792" transform="translate(0)">
        <path id="Path_11151" data-name="Path 11151" d="M202.487,299.859h-.415a2.628,2.628,0,0,1-2.492-3.446c.523-1.62,1.414-3.253,2.907-3.5,3.087-.515,11.578,2.058,11.578,3.859s0,2.573-1.029,2.573H206.6L201.458,305l-.11-.09a2.376,2.376,0,0,1-.007-3.637A5.367,5.367,0,0,0,202.487,299.859Z" transform="translate(-161.899 -277.759)" fill="#263238" stroke="#263238" stroke-linecap="round" stroke-linejoin="round" stroke-width="1"/>
        <path id="Path_11152" data-name="Path 11152" d="M278.719,351.852h85.417s12.349-8.233,9.777-29.845-16.466-7.2-21.612,7.2H314.224s-8.233-16.466-21.612-14.407S278.719,351.852,278.719,351.852Z" transform="translate(-179.985 -281.898)" fill="#263238" stroke="#263238" stroke-linecap="round" stroke-linejoin="round" stroke-width="1"/>
        <path id="Path_11153" data-name="Path 11153" d="M297.029,351.847a27.8,27.8,0,0,0-4.727-16.1v-6.02H282c-8.3,0-15.025,9.9-15.025,22.116s6.727,22.116,15.025,22.116h10.3v-6.02A27.8,27.8,0,0,0,297.029,351.847Z" transform="translate(-177.306 -286.174)" fill="#263238" stroke="#263238" stroke-linecap="round" stroke-linejoin="round" stroke-width="1"/>
        <g id="Group_13781" data-name="Group 13781" transform="translate(99.97 43.557)">
          <ellipse id="Ellipse_125" data-name="Ellipse 125" cx="15.026" cy="22.116" rx="15.026" ry="22.116" fill="#263238"/>
          <g id="Group_13780" data-name="Group 13780" clip-path="url(#clip-path-2)">
            <ellipse id="Ellipse_126" data-name="Ellipse 126" cx="15.026" cy="22.116" rx="15.026" ry="22.116" fill="#fff" opacity="0.2"/>
          </g>
          <ellipse id="Ellipse_128" data-name="Ellipse 128" cx="15.026" cy="22.116" rx="15.026" ry="22.116" fill="none" stroke="#263238" stroke-linecap="round" stroke-linejoin="round" stroke-width="1"/>
        </g>
        <path id="Path_11154" data-name="Path 11154" d="M178.578,329.731h-9.733c-7.843,0-14.2,9.9-14.2,22.116s6.358,22.116,14.2,22.116h9.733c7.843,0,14.2-9.9,14.2-22.116S186.422,329.731,178.578,329.731Z" transform="translate(-151.677 -286.174)" fill="#263238" stroke="#263238" stroke-linecap="round" stroke-linejoin="round" stroke-width="1"/>
        <ellipse id="Ellipse_129" data-name="Ellipse 129" cx="11.987" cy="17.643" rx="11.987" ry="17.643" transform="translate(103.009 48.03)" fill="#fff" stroke="#263238" stroke-linecap="round" stroke-linejoin="round" stroke-width="1"/>
        <path id="Path_11155" data-name="Path 11155" d="M390.671,351.847a39.94,39.94,0,0,0-3.009-16.1v-6.02H378.57c-5.281,0-9.562,9.9-9.562,22.116s4.281,22.116,9.562,22.116h9.092v-6.02A39.944,39.944,0,0,0,390.671,351.847Z" transform="translate(-200.585 -286.174)" fill="#263238" stroke="#263238" stroke-linecap="round" stroke-linejoin="round" stroke-width="1"/>
        <g id="Group_13783" data-name="Group 13783" transform="translate(177.515 43.557)">
          <ellipse id="Ellipse_130" data-name="Ellipse 130" cx="9.563" cy="22.116" rx="9.563" ry="22.116" fill="#263238"/>
          <g id="Group_13782" data-name="Group 13782" clip-path="url(#clip-path-3)">
            <ellipse id="Ellipse_131" data-name="Ellipse 131" cx="9.563" cy="22.116" rx="9.563" ry="22.116" fill="#fff" opacity="0.2"/>
          </g>
          <ellipse id="Ellipse_133" data-name="Ellipse 133" cx="9.563" cy="22.116" rx="9.563" ry="22.116" fill="none" stroke="#263238" stroke-linecap="round" stroke-linejoin="round" stroke-width="1"/>
        </g>
        <ellipse id="Ellipse_134" data-name="Ellipse 134" cx="7.629" cy="17.643" rx="7.629" ry="17.643" transform="translate(179.449 48.03)" fill="#fff" stroke="#263238" stroke-linecap="round" stroke-linejoin="round" stroke-width="1"/>
        <g id="Group_13785" data-name="Group 13785">
          <path id="Path_11156" data-name="Path 11156" d="M253.133,344.375c0-17.623,6.122-31.909,13.675-31.909s13.676,14.286,13.676,31.909c0,.968-.022,1.923-.058,2.87h48.722q-.039-1.419-.042-2.87c0-17.623,4.459-31.909,9.961-31.909,3.676,0,6.884,6.383,8.61,15.872V302.314a5.08,5.08,0,0,0-4.151-5l-.238-.046c-3.377-.675-9.454-7.091-18.909-15.195s-17.9-8.779-17.9-8.779h-85.3a7.287,7.287,0,0,0-4.454,1.518l-29.1,22.455s-26,5.064-31.74,10.8-5.065,39.168-5.065,39.168H253.191C253.155,346.3,253.133,345.343,253.133,344.375Z" transform="translate(-150.799 -273.299)" fill="#439c39"/>
          <g id="Group_13784" data-name="Group 13784" clip-path="url(#clip-path-4)">
            <path id="Path_11157" data-name="Path 11157" d="M270.016,297.272l4.517-23.973H221.178a7.287,7.287,0,0,0-4.454,1.518l-29.1,22.455s-26,5.064-31.74,10.8-5.065,39.168-5.065,39.168h91.342c.658-18.047,4.795-26.632,4.795-26.632H221.747C241.3,299.515,270.016,297.272,270.016,297.272Z" transform="translate(-150.799 -273.299)" opacity="0.3"/>
          </g>
          <path id="Path_11159" data-name="Path 11159" d="M253.133,344.375c0-17.623,6.122-31.909,13.675-31.909s13.676,14.286,13.676,31.909c0,.968-.022,1.923-.058,2.87h48.722q-.039-1.419-.042-2.87c0-17.623,4.459-31.909,9.961-31.909,3.676,0,6.884,6.383,8.61,15.872V302.314a5.08,5.08,0,0,0-4.151-5l-.238-.046c-3.377-.675-9.454-7.091-18.909-15.195s-17.9-8.779-17.9-8.779h-85.3a7.287,7.287,0,0,0-4.454,1.518l-29.1,22.455s-26,5.064-31.74,10.8-5.065,39.168-5.065,39.168H253.191C253.155,346.3,253.133,345.343,253.133,344.375Z" transform="translate(-150.799 -273.299)" fill="none" stroke="#263238" stroke-linecap="round" stroke-linejoin="round" stroke-width="1"/>
        </g>
        <path id="Path_11160" data-name="Path 11160" d="M296.435,273.3h-64.37a7.287,7.287,0,0,0-4.454,1.518l-29.1,22.455H280.9Z" transform="translate(-161.686 -273.299)" fill="#439c39" stroke="#263238" stroke-linecap="round" stroke-linejoin="round" stroke-width="1"/>
        <g id="Group_13786" data-name="Group 13786" transform="translate(76.334 33.003)">
          <path id="Path_11161" data-name="Path 11161" d="M274.4,316.061c-4.634.057-12.742.366-16.257,1.772a64.912,64.912,0,0,0-8.442,4.052h16.545Z" transform="translate(-249.698 -316.059)" fill="#263238" stroke="#263238" stroke-linecap="round" stroke-linejoin="round" stroke-width="1"/>
          <path id="Path_11162" data-name="Path 11162" d="M267.256,329.271v-3.039H249.7l3.18,2.935a.733.733,0,0,0-.14.1Z" transform="translate(-249.698 -318.379)" fill="#263238" stroke="#263238" stroke-linecap="round" stroke-linejoin="round" stroke-width="1"/>
          <path id="Path_11163" data-name="Path 11163" d="M274.634,322.56v4.416a4.459,4.459,0,0,0,3.376-2.052c1.689-2.7,5.489-8.865,5.489-8.865Z" transform="translate(-255.387 -316.058)" fill="#263238" stroke="#263238" stroke-linecap="round" stroke-linejoin="round" stroke-width="1"/>
        </g>
        <g id="Group_13787" data-name="Group 13787" transform="translate(1.772 35.946)">
          <path id="Path_11164" data-name="Path 11164" d="M158.046,329.167l3.18-2.935h-7.495c-.234.949-.445,1.967-.637,3.039h5.093A.716.716,0,0,0,158.046,329.167Z" transform="translate(-153.095 -321.322)" fill="#263238" stroke="#263238" stroke-linecap="round" stroke-linejoin="round" stroke-width="1"/>
          <path id="Path_11165" data-name="Path 11165" d="M155.895,319.871a14.444,14.444,0,0,0-1.236,2.884h6.924A59.785,59.785,0,0,0,155.895,319.871Z" transform="translate(-153.452 -319.871)" fill="#263238" stroke="#263238" stroke-linecap="round" stroke-linejoin="round" stroke-width="1"/>
        </g>
        <g id="Group_13789" data-name="Group 13789" transform="translate(119.216 3.039)">
          <path id="Path_11166" data-name="Path 11166" d="M305.256,298.171h49.973s7.091-2.364,5.065-11.143c-.688-2.979-14.856-9.792-16.883-9.792H319.1Z" transform="translate(-305.256 -277.236)" fill="#263238"/>
          <g id="Group_13788" data-name="Group 13788" clip-path="url(#clip-path-5)">
            <path id="Path_11167" data-name="Path 11167" d="M305.256,298.171h49.973s7.091-2.364,5.065-11.143c-.688-2.979-14.856-9.792-16.883-9.792H319.1Z" transform="translate(-305.256 -277.236)" fill="#fff" stroke="#263238" stroke-linecap="round" stroke-linejoin="round" stroke-width="1" opacity="0.2"/>
          </g>
          <path id="Path_11169" data-name="Path 11169" d="M305.256,298.171h49.973s7.091-2.364,5.065-11.143c-.688-2.979-14.856-9.792-16.883-9.792H319.1Z" transform="translate(-305.256 -277.236)" fill="none" stroke="#263238" stroke-linecap="round" stroke-linejoin="round" stroke-width="1"/>
        </g>
        <path id="Path_11170" data-name="Path 11170" d="M225.641,277.236,198.515,298.17H280.9l13.563-20.935Z" transform="translate(-161.686 -274.197)" fill="#263238" stroke="#263238" stroke-linecap="round" stroke-linejoin="round" stroke-width="1"/>
        <path id="Path_11171" data-name="Path 11171" d="M165.268,324.482v7.091l5.065,3.714h40.856l9.454-4.052v-6.753Z" transform="translate(-154.1 -284.977)" fill="#263238" stroke="#263238" stroke-linecap="round" stroke-linejoin="round" stroke-width="1"/>
        <g id="Group_13790" data-name="Group 13790" transform="translate(11.167 39.505)">
          <rect id="Rectangle_19146" data-name="Rectangle 19146" width="1.888" height="1.888" fill="#fff" opacity="0.3"/>
          <rect id="Rectangle_19147" data-name="Rectangle 19147" width="1.888" height="1.888" transform="translate(2.088 2.088)" fill="#fff" opacity="0.3"/>
          <rect id="Rectangle_19148" data-name="Rectangle 19148" width="1.888" height="1.888" transform="translate(4.175 4.175)" fill="#fff" opacity="0.3"/>
          <rect id="Rectangle_19149" data-name="Rectangle 19149" width="1.888" height="1.888" transform="translate(6.263 6.263)" fill="#fff" opacity="0.3"/>
          <rect id="Rectangle_19150" data-name="Rectangle 19150" width="1.888" height="1.888" transform="translate(53.112)" fill="#fff" opacity="0.3"/>
          <rect id="Rectangle_19151" data-name="Rectangle 19151" width="1.888" height="1.888" transform="translate(51.024 2.088)" fill="#fff" opacity="0.3"/>
          <rect id="Rectangle_19152" data-name="Rectangle 19152" width="1.888" height="1.888" transform="translate(48.937 4.175)" fill="#fff" opacity="0.3"/>
          <rect id="Rectangle_19153" data-name="Rectangle 19153" width="1.888" height="1.888" transform="translate(46.849 6.263)" fill="#fff" opacity="0.3"/>
          <rect id="Rectangle_19154" data-name="Rectangle 19154" width="1.888" height="1.888" transform="translate(9.162 6.263)" fill="#fff" opacity="0.3"/>
          <rect id="Rectangle_19155" data-name="Rectangle 19155" width="1.888" height="1.888" transform="translate(12.061 6.263)" fill="#fff" opacity="0.3"/>
          <rect id="Rectangle_19156" data-name="Rectangle 19156" width="1.888" height="1.888" transform="translate(14.96 6.263)" fill="#fff" opacity="0.3"/>
          <rect id="Rectangle_19157" data-name="Rectangle 19157" width="1.888" height="1.888" transform="translate(17.859 6.263)" fill="#fff" opacity="0.3"/>
          <rect id="Rectangle_19158" data-name="Rectangle 19158" width="1.888" height="1.888" transform="translate(20.758 6.263)" fill="#fff" opacity="0.3"/>
          <rect id="Rectangle_19159" data-name="Rectangle 19159" width="1.888" height="1.888" transform="translate(23.657 6.263)" fill="#fff" opacity="0.3"/>
          <rect id="Rectangle_19160" data-name="Rectangle 19160" width="1.888" height="1.888" transform="translate(26.556 6.263)" fill="#fff" opacity="0.3"/>
          <rect id="Rectangle_19161" data-name="Rectangle 19161" width="1.888" height="1.888" transform="translate(29.455 6.263)" fill="#fff" opacity="0.3"/>
          <rect id="Rectangle_19162" data-name="Rectangle 19162" width="1.888" height="1.888" transform="translate(32.354 6.263)" fill="#fff" opacity="0.3"/>
          <rect id="Rectangle_19163" data-name="Rectangle 19163" width="1.888" height="1.888" transform="translate(35.253 6.263)" fill="#fff" opacity="0.3"/>
          <rect id="Rectangle_19164" data-name="Rectangle 19164" width="1.888" height="1.888" transform="translate(38.152 6.263)" fill="#fff" opacity="0.3"/>
          <rect id="Rectangle_19165" data-name="Rectangle 19165" width="1.888" height="1.888" transform="translate(41.051 6.263)" fill="#fff" opacity="0.3"/>
          <rect id="Rectangle_19166" data-name="Rectangle 19166" width="1.888" height="1.888" transform="translate(43.95 6.263)" fill="#fff" opacity="0.3"/>
        </g>
        <path id="Path_11172" data-name="Path 11172" d="M236.947,346.561H152.871l-1.126-9.01c-.516,4.951-.751,10.228-.852,14.56l.29,1.2,1.688-3.377h7.211l-4.51,3.714h66.856l-2.388-3.714h16.907l4.727,2.7h3.377V335.418Z" transform="translate(-150.821 -287.472)" fill="#263238" stroke="#263238" stroke-linecap="round" stroke-linejoin="round" stroke-width="1"/>
        <path id="Path_11173" data-name="Path 11173" d="M327.154,299.859h-.416a2.627,2.627,0,0,1-2.491-3.446c.523-1.62,1.413-3.253,2.907-3.5,3.087-.515,11.578,2.058,11.578,3.859s0,2.573-1.029,2.573h-6.433L326.125,305l-.11-.09a2.375,2.375,0,0,1-.007-3.637A5.4,5.4,0,0,0,327.154,299.859Z" transform="translate(-190.343 -277.759)" fill="#439c39"/>
        <path id="Path_11174" data-name="Path 11174" d="M346.124,298.171h2.818c-.3-4.141-1.48-13.266-6.118-20.935H340C341.628,280.765,345.489,289.864,346.124,298.171Z" transform="translate(-193.966 -274.197)" fill="#263238" stroke="#263238" stroke-linecap="round" stroke-linejoin="round" stroke-width="1"/>
        <path id="Path_11175" data-name="Path 11175" d="M256.141,284.142l1.029,2.83a6.644,6.644,0,0,0-2.058,4.631v7.791h-6.335l5.3-15.252ZM226.554,288c-4.346,2.646-10.908,8.479-14.089,11.393h21.156l10.942-16.8-7.2.515A45.355,45.355,0,0,0,226.554,288Zm43.737-2.058-2.573-.515h-3.6l-1.029,1.029s2.573.258,2.83,1.8a39.29,39.29,0,0,1,.257,4.631h1.8s0-2.83,1.287-4.117a24.26,24.26,0,0,1,2.316-2.058Z" transform="translate(-164.869 -275.421)" fill="#fff" stroke="#263238" stroke-linecap="round" stroke-linejoin="round" stroke-width="1"/>
        <path id="Path_11176" data-name="Path 11176" d="M326.026,306.322l.11.09,5.145-5.66h6.432c.851,0,1-.538,1.021-1.738H324.161a2.615,2.615,0,0,0,2.587,2.253h.416a5.4,5.4,0,0,1-1.145,1.419A2.375,2.375,0,0,0,326.026,306.322Z" transform="translate(-190.353 -279.166)" fill="#263238" stroke="#263238" stroke-linecap="round" stroke-linejoin="round" stroke-width="1"/>
        <rect id="Rectangle_19167" data-name="Rectangle 19167" width="5.791" height="1.241" transform="translate(145.763 30.189)" fill="#263238"/>
        <rect id="Rectangle_19168" data-name="Rectangle 19168" width="5.792" height="1.241" transform="translate(171.825 30.189)" fill="#263238"/>
        <path id="Path_11177" data-name="Path 11177" d="M380.354,305.981s4.19,2.844,6.619,12.824c0,0-10.342,1.241-10.342,29.785" transform="translate(-202.324 -280.756)" fill="none" stroke="#263238" stroke-linecap="round" stroke-linejoin="round" stroke-width="1"/>
        <g id="Group_13791" data-name="Group 13791" transform="translate(0.001 69.075)">
          <path id="Path_11178" data-name="Path 11178" d="M362.182,362.793H318.771c.018.662.03,1.328.03,2,0,.968-.022,1.923-.058,2.87h48.722q-.039-1.419-.042-2.87c0-.066,0-.132,0-.2Z" transform="translate(-189.117 -362.793)" fill="#263238" stroke="#263238" stroke-linecap="round" stroke-linejoin="round" stroke-width="1"/>
          <path id="Path_11179" data-name="Path 11179" d="M253.133,364.794c0-.672.012-1.338.029-2H150.805c-.019,2.969.019,4.87.019,4.87H253.191C253.155,366.717,253.133,365.762,253.133,364.794Z" transform="translate(-150.8 -362.793)" fill="#263238" stroke="#263238" stroke-linecap="round" stroke-linejoin="round" stroke-width="1"/>
        </g>
        <path id="Path_11180" data-name="Path 11180" d="M402.644,309.2a2.967,2.967,0,0,0-2.6,4.387l4.42,8.1V310.5a5.042,5.042,0,0,0-.189-1.305l-.042,0Z" transform="translate(-207.583 -281.489)" fill="#263238" stroke="#263238" stroke-linecap="round" stroke-linejoin="round" stroke-width="1"/>
        <path id="Path_11181" data-name="Path 11181" d="M352.052,309.932s9.262,13.378,0,36.019" transform="translate(-196.716 -281.657)" fill="none" stroke="#263238" stroke-linecap="round" stroke-linejoin="round" stroke-width="1"/>
      </g>
    </g>
  </g>
</svg>
