<svg xmlns="http://www.w3.org/2000/svg" width="209.29" height="78.379" viewBox="0 0 209.29 78.379">
    <g id="Group_13721" transform="translate(-82.855 -65.953)">
        <g id="Rectangle_19044" transform="translate(143.145 79)" fill="#2c302e" stroke="#439c39"
            stroke-width="6">
            <path
                d="M0,0H122.5A26.5,26.5,0,0,1,149,26.5v0A26.5,26.5,0,0,1,122.5,53H0a0,0,0,0,1,0,0V0A0,0,0,0,1,0,0Z"
                stroke="none" />
            <path
                d="M5.611,3H122.5A23.5,23.5,0,0,1,146,26.5v0A23.5,23.5,0,0,1,122.5,50H5.611A2.611,2.611,0,0,1,3,47.389V5.611A2.611,2.611,0,0,1,5.611,3Z"
                fill="none" />
        </g>
        <g id="Group_13720" transform="translate(-1972.241 -663.047)">
            <circle id="Ellipse_2" cx="39.19" cy="39.19" r="39.19"
                transform="translate(2056.007 729)" fill="#439c39" />
            <circle id="Ellipse_3" cx="32.225" cy="32.225" r="32.225"
                transform="translate(2063.064 735.872)" fill="#ecfdea" />
            <path id="Path_32"
                d="M4.187,431.782a33.465,33.465,0,0,0,8.335-5.06c.428-.868,1.324-1.263,1.964-1.922a12.65,12.65,0,0,1,2.343-2.2,5.171,5.171,0,0,1,2.5,2.091,15.851,15.851,0,0,1-5.175,4.811,52.968,52.968,0,0,1-8.175,5.013c-1.606.613-3.209,1.236-4.821,1.831a2.117,2.117,0,0,1-1.065.247v-3.156a.893.893,0,0,1,.551-.455c1.212-.308,2.274-1.055,3.54-1.2"
                transform="translate(2055 358.516)" fill="#fae320" />
            <path id="Path_94"
                d="M86.556,392.848c-1.163-1.029-1.16-1.027-.2-2.249q1.837-2.331,3.667-4.667c.311-.138.54.064.742.226,1.239.993,2.507,1.95,3.741,2.948a.762.762,0,0,1,.384.686c-1.358,1.724-2.742,3.427-4.058,5.182-.449.6-.793.777-1.338.176a2.88,2.88,0,0,0-.523-.368,20.753,20.753,0,0,0-2.417-1.935"
                transform="translate(1985.329 388.411)" fill="#2e2e2e" />
            <path id="Union_1"
                d="M8.233,29.492a6.586,6.586,0,0,0-1.6-1.077,57.759,57.759,0,0,0-4.867-3.861C-.357,22.986-.606,22.517,1.236,20.3c1.282-1.541,2.517-3.122,3.773-4.684.777.207,1.263.854,1.9,1.268.388.251.735.566,1.12.825a1.589,1.589,0,0,0,2.43-.341,24.33,24.33,0,0,1,2.03-2.264l.028-.006c.179-.96,1.01-1.505,1.508-2.263,1.5-1.585,2.674-3.453,4.336-4.889.459-.4.893-.868,1.593-.791l.1.036a3.009,3.009,0,0,1,2.255-.752,41.6,41.6,0,0,1,5.528-.215c.421,0,.843,0,1.264,0a5.011,5.011,0,0,1,1.1.066,3.822,3.822,0,0,1,.341.275l0-.017c1.2-.91,1.261-2.18,1.237-3.543A5.561,5.561,0,0,1,32.017.031c1.509-.008,3.018,0,4.527-.031a2.2,2.2,0,0,1,1.418.575,4.274,4.274,0,0,1,.211,1.173c-.017,3.677-.011,7.354-.023,11.031,0,1.3-.562,1.862-1.855,1.865-2.656.006-5.312,0-7.968-.006h0l-2.061.047h0L24.542,15c-2.588.474-4.264,2.245-5.868,4.121-.28.327-.579.639-.869.957h0q-2.88,3.612-5.76,7.225c-.5.627-.965,1.281-1.477,1.9a1.612,1.612,0,0,1-1.21.729A2.06,2.06,0,0,1,8.233,29.492Zm28.544-15-.1-.053a.241.241,0,0,1-.034.053ZM34.063,10.12c.006-.9.73-1.492,1.067-2.25.2-.44.519-.787-.2-1.061-.375-.144-.342-.546-.3-.89a7.834,7.834,0,0,1,.209-.954,11.819,11.819,0,0,1-1.109,2.193c-.134.217-.429.573-.065.7,1.156.414.545,1.151.407,1.809a.561.561,0,0,1-.147.308A.624.624,0,0,1,34.063,10.12Z"
                transform="translate(2073.585 749.789)" fill="#439c39" stroke="rgba(0,0,0,0)"
                stroke-width="1" />
            <path id="Path_113"
                d="M203.624,253.741c0,1.45-.03,2.9,0,4.351a1.985,1.985,0,0,1-1.48,2.17c-2.785-.063-5.569-.039-8.352.116-.12-.068.306-.364-.129-.3a2.372,2.372,0,0,1-2.188-.929c-.889-.99-2.124-1.561-3.088-2.47-.261-.246-.566-.42-.194-.795a10.6,10.6,0,0,1,6.283-2.109c3.045-.163,6.1-.127,9.147-.03"
                transform="translate(1901.979 496.08)" fill="#333" />
            <path id="Path_114"
                d="M157.079,265.62c0,.165-.12.317.093.484a26.878,26.878,0,0,1,3.878,3.129,1.338,1.338,0,0,0,1.092.371c.378,0,.8-.151,1.137.182-.11.293-.479.086-.6.331a6.9,6.9,0,0,0-2.232.636c-1.283.226-1.935,1.286-2.723,2.129-1.062,1.135-2.039,2.35-3.053,3.53a.3.3,0,0,1-.227-.424.242.242,0,0,1,.351-.167c-.121-.1-.242-.039-.356.032-.627.391-1.087.176-1.506-.363-.673-.867-1.392-1.662-2.681-1.327-.249.065-.51-.026-.427-.4a74.713,74.713,0,0,1,6.161-7.311,11.546,11.546,0,0,1,1.093-.834"
                transform="translate(1933.094 486.34)" fill="#282828" />
            <path id="Path_115"
                d="M130.938,309.382c.079.2.256.342.429.235,1.193-.733,1.91.283,2.483.891.672.712,1.08,1.493,2.181.452,0,.551-.614.68-.248,1.07L134.1,314.3c-.667.821-1.321,1.653-2,2.461a1.636,1.636,0,0,1-2.3.393,23.391,23.391,0,0,1-3.186-2.474l4.324-5.3"
                transform="translate(1951.98 450.723)" fill="#1e1e1e" />
            <path id="Path_116"
                d="M278.644,282.574l.381-1.771c-1.34-.183-1.369-.212-.611-1.369a22.279,22.279,0,0,1,1.526-2.659c-.07.512-.115.874-.17,1.235-.176,1.159-.177,1.158.924,1.463l-1.823,3.307-.227-.206"
                transform="translate(1828.781 477.257)" fill="#fff" />
        </g>
        <text id="CMS" transform="translate(173 119)" fill="#ecfdea" font-size="44"
            font-family="BeybladeMetalFightRegular, Beyblade Metal Fight Regular">
            <tspan x="0" y="0">CMS</tspan>
        </text>
    </g>
</svg>
