<svg xmlns="http://www.w3.org/2000/svg" width="30" height="30" viewBox="0 0 30 30">
  <g id="Group_13662" data-name="Group 13662" transform="translate(-88 -432)">
    <g id="Group_13665" data-name="Group 13665">
      <rect id="Rectangle_2572" data-name="Rectangle 2572" width="30" height="30" rx="6" transform="translate(88 432)" fill="#fd724c"/>
    </g>
    <path id="Icon_metro-dollar2" data-name="Icon metro-dollar2" d="M19.431,14.235a3.863,3.863,0,0,1-1.01,2.675A4.36,4.36,0,0,1,15.8,18.3v1.777a.313.313,0,0,1-.325.325H14.1a.329.329,0,0,1-.325-.325V18.3a6.4,6.4,0,0,1-1.295-.315,6.235,6.235,0,0,1-1.782-.939,5.786,5.786,0,0,1-.472-.381q-.127-.122-.178-.183a.308.308,0,0,1-.02-.416l1.046-1.371a.316.316,0,0,1,.234-.122.252.252,0,0,1,.244.091l.02.02a5.3,5.3,0,0,0,2.467,1.269,3.546,3.546,0,0,0,.751.081,2.462,2.462,0,0,0,1.447-.437,1.422,1.422,0,0,0,.624-1.239,1.029,1.029,0,0,0-.152-.538,1.9,1.9,0,0,0-.34-.426,2.787,2.787,0,0,0-.594-.381q-.406-.208-.67-.325t-.812-.33l-.624-.254q-.228-.091-.624-.269t-.635-.315q-.239-.137-.574-.36a3.575,3.575,0,0,1-.543-.432,6.328,6.328,0,0,1-.442-.5,2.484,2.484,0,0,1-.36-.589,4.072,4.072,0,0,1-.213-.675,3.524,3.524,0,0,1-.086-.792,3.472,3.472,0,0,1,1-2.457,4.646,4.646,0,0,1,2.589-1.361V2.528A.329.329,0,0,1,14.1,2.2h1.371a.313.313,0,0,1,.325.325V4.315a5.647,5.647,0,0,1,1.122.234,6.505,6.505,0,0,1,.883.34,4.892,4.892,0,0,1,.645.381q.3.213.4.294t.152.142a.294.294,0,0,1,.051.386l-.822,1.482a.277.277,0,0,1-.234.162.324.324,0,0,1-.274-.071q-.03-.03-.147-.122t-.4-.269a5.239,5.239,0,0,0-.594-.325,4.535,4.535,0,0,0-.756-.264,3.387,3.387,0,0,0-.868-.117,2.639,2.639,0,0,0-1.574.437,1.365,1.365,0,0,0-.523,1.614,1.143,1.143,0,0,0,.3.421,4.474,4.474,0,0,0,.4.335,3.576,3.576,0,0,0,.569.315q.381.178.614.274t.711.279q.538.2.822.32t.772.355a6.134,6.134,0,0,1,.767.432,6.482,6.482,0,0,1,.63.508,2.629,2.629,0,0,1,.538.645,3.68,3.68,0,0,1,.32.777,3.35,3.35,0,0,1,.132.954Z" transform="translate(88.306 435.699)" fill="#fff"/>
  </g>
</svg>
