<svg xmlns="http://www.w3.org/2000/svg" width="30" height="30" viewBox="0 0 30 30">
  <g id="Group_13664" transform="translate(-144 -391)">
    <rect id="Rectangle_2572" width="30" height="30" rx="6" transform="translate(144 391)" fill="#1d6fdb"/>
    <g id="vuesax_outline_bubble" transform="translate(-23 -240)">
      <g id="bubble" transform="translate(172 636)">
        <g id="Vector" transform="translate(8.3 1.068)" fill="#fff">
          <path d="M 5.026093006134033 10.20217704772949 C 2.171983003616333 10.20217704772949 -0.1499969959259033 7.880196571350098 -0.1499969959259033 5.026096820831299 C -0.1499969959259033 2.171986818313599 2.171983003616333 -0.15000319480896 5.026093006134033 -0.15000319480896 C 7.880202770233154 -0.15000319480896 10.20218276977539 2.171986818313599 10.20218276977539 5.026096820831299 C 10.20218276977539 7.880196571350098 7.880202770233154 10.20217704772949 5.026093006134033 10.20217704772949 Z M 5.026093006134033 1.432166814804077 C 3.044393062591553 1.432166814804077 1.432163000106812 3.044396877288818 1.432163000106812 5.026096820831299 C 1.432163000106812 7.007786750793457 3.044393062591553 8.620006561279297 5.026093006134033 8.620006561279297 C 7.007792949676514 8.620006561279297 8.620022773742676 7.007786750793457 8.620022773742676 5.026096820831299 C 8.620022773742676 3.044396877288818 7.007792949676514 1.432166814804077 5.026093006134033 1.432166814804077 Z" stroke="none"/>
          <path d="M 5.026093006134033 10.0521764755249 C 7.795573234558105 10.0521764755249 10.05218315124512 7.795567035675049 10.05218315124512 5.026096820831299 C 10.05218315124512 2.256616830825806 7.795573234558105 -3.192749090885627e-06 5.026093006134033 -3.192749090885627e-06 C 2.25661301612854 -3.192749090885627e-06 3.006133965754998e-06 2.256616830825806 3.006133965754998e-06 5.026096820831299 C 3.006133965754998e-06 7.795567035675049 2.25661301612854 10.0521764755249 5.026093006134033 10.0521764755249 M 5.026093006134033 1.282166838645935 C 7.086102962493896 1.282166838645935 8.770023345947266 2.957536697387695 8.770023345947266 5.026096820831299 C 8.770023345947266 7.094656944274902 7.094653129577637 8.770007133483887 5.026093006134033 8.770007133483887 C 2.957533121109009 8.770007133483887 1.282163023948669 7.094656944274902 1.282163023948669 5.026096820831299 C 1.282163023948669 2.957536697387695 2.96608304977417 1.282166838645935 5.026093006134033 1.282166838645935 M 5.026093006134033 10.35217666625977 C 2.089272975921631 10.35217666625977 -0.2999970018863678 7.962906837463379 -0.2999970018863678 5.026096820831299 C -0.2999970018863678 2.089276790618896 2.089272975921631 -0.3000032007694244 5.026093006134033 -0.3000032007694244 C 7.962913036346436 -0.3000032007694244 10.35218334197998 2.089276790618896 10.35218334197998 5.026096820831299 C 10.35218334197998 7.962906837463379 7.962913036346436 10.35217666625977 5.026093006134033 10.35217666625977 Z M 5.026093006134033 1.582166790962219 C 3.127103090286255 1.582166790962219 1.582162976264954 3.127106904983521 1.582162976264954 5.026096820831299 C 1.582162976264954 6.925076961517334 3.127103090286255 8.470006942749023 5.026093006134033 8.470006942749023 C 6.925083160400391 8.470006942749023 8.470023155212402 6.925076961517334 8.470023155212402 5.026096820831299 C 8.470023155212402 3.127106904983521 6.925083160400391 1.582166790962219 5.026093006134033 1.582166790962219 Z" stroke="none" fill="#fff"/>
        </g>
        <g id="Vector-2" transform="translate(2.163 10.71)" fill="#fff">
          <path d="M 3.273787498474121 6.697597503662109 C 1.385907530784607 6.697597503662109 -0.1500024944543839 5.16168737411499 -0.1500024944543839 3.273797512054443 C -0.1500024944543839 1.385907530784607 1.385907530784607 -0.1500024944543839 3.273787498474121 -0.1500024944543839 C 5.16168737411499 -0.1500024944543839 6.697597503662109 1.385907530784607 6.697597503662109 3.273797512054443 C 6.697597503662109 5.16168737411499 5.16168737411499 6.697597503662109 3.273787498474121 6.697597503662109 Z M 3.273787498474121 1.432167530059814 C 2.258317470550537 1.432167530059814 1.432167530059814 2.258317470550537 1.432167530059814 3.273797512054443 C 1.432167530059814 4.28927755355835 2.258317470550537 5.115427494049072 3.273787498474121 5.115427494049072 C 4.289267539978027 5.115427494049072 5.115427494049072 4.28927755355835 5.115427494049072 3.273797512054443 C 5.115427494049072 2.258317470550537 4.289267539978027 1.432167530059814 3.273787498474121 1.432167530059814 Z" stroke="none"/>
          <path d="M 3.273787498474121 6.547597408294678 C 5.077367305755615 6.547597408294678 6.547597408294678 5.077377319335938 6.547597408294678 3.273797512054443 C 6.547597408294678 1.47021746635437 5.077367305755615 -2.48794549406739e-06 3.273787498474121 -2.48794549406739e-06 C 1.470207452774048 -2.48794549406739e-06 -2.48794549406739e-06 1.47021746635437 -2.48794549406739e-06 3.273797512054443 C -2.48794549406739e-06 5.077377319335938 1.470207452774048 6.547597408294678 3.273787498474121 6.547597408294678 M 3.273787498474121 1.282167553901672 C 4.367897510528564 1.282167553901672 5.265427589416504 2.1796875 5.265427589416504 3.273797512054443 C 5.265427589416504 4.376457691192627 4.367897510528564 5.265427589416504 3.273787498474121 5.265427589416504 C 2.171117544174194 5.265427589416504 1.282167553901672 4.367907524108887 1.282167553901672 3.273797512054443 C 1.282167553901672 2.171137571334839 2.179667472839355 1.282167553901672 3.273787498474121 1.282167553901672 M 3.273787498474121 6.847597599029541 C 1.303197503089905 6.847597599029541 -0.3000024855136871 5.244397640228271 -0.3000024855136871 3.273797512054443 C -0.3000024855136871 1.303197503089905 1.303197503089905 -0.3000024855136871 3.273787498474121 -0.3000024855136871 C 5.244397640228271 -0.3000024855136871 6.847597599029541 1.303197503089905 6.847597599029541 3.273797512054443 C 6.847597599029541 5.244397640228271 5.244397640228271 6.847597599029541 3.273787498474121 6.847597599029541 Z M 3.273787498474121 1.582167506217957 C 2.341027498245239 1.582167506217957 1.582167506217957 2.341027498245239 1.582167506217957 3.273797512054443 C 1.582167506217957 4.206567287445068 2.341027498245239 4.965427398681641 3.273787498474121 4.965427398681641 C 4.206557273864746 4.965427398681641 4.965427398681641 4.206567287445068 4.965427398681641 3.273797512054443 C 4.965427398681641 2.341027498245239 4.206557273864746 1.582167506217957 3.273787498474121 1.582167506217957 Z" stroke="none" fill="#fff"/>
        </g>
        <g id="Vector-3" transform="translate(11.377 13.788)" fill="#fff">
          <path d="M 2.829309940338135 5.808619976043701 C 1.186509966850281 5.808619976043701 -0.1500000655651093 4.472109794616699 -0.1500000655651093 2.829309940338135 C -0.1500000655651093 1.186509966850281 1.186509966850281 -0.1500000655651093 2.829309940338135 -0.1500000655651093 C 4.472109794616699 -0.1500000655651093 5.808619976043701 1.186509966850281 5.808619976043701 2.829309940338135 C 5.808619976043701 4.472109794616699 4.472109794616699 5.808619976043701 2.829309940338135 5.808619976043701 Z M 2.829309940338135 1.423609972000122 C 2.058919906616211 1.423609972000122 1.432169914245605 2.050359964370728 1.432169914245605 2.820749998092651 C 1.432169914245605 3.591150045394897 2.058919906616211 4.217909812927246 2.829309940338135 4.217909812927246 C 3.599699974060059 4.217909812927246 4.226449966430664 3.591150045394897 4.226449966430664 2.820749998092651 C 4.226449966430664 2.050359964370728 3.599699974060059 1.423609972000122 2.829309940338135 1.423609972000122 Z" stroke="none"/>
          <path d="M 2.829309940338135 5.65861988067627 C 4.384999752044678 5.65861988067627 5.65861988067627 4.384999752044678 5.65861988067627 2.829309940338135 C 5.65861988067627 1.273619890213013 4.384999752044678 -5.966186478190139e-08 2.829309940338135 -5.966186478190139e-08 C 1.273619890213013 -5.966186478190139e-08 -5.966186478190139e-08 1.265069961547852 -5.966186478190139e-08 2.829309940338135 C -5.966186478190139e-08 4.384999752044678 1.265069961547852 5.65861988067627 2.829309940338135 5.65861988067627 M 2.829309940338135 1.27360999584198 C 3.68408989906311 1.27360999584198 4.376450061798096 1.974519968032837 4.376450061798096 2.820749998092651 C 4.376450061798096 3.675529956817627 3.68408989906311 4.367909908294678 2.829309940338135 4.367909908294678 C 1.974529981613159 4.367909908294678 1.282169938087463 3.675529956817627 1.282169938087463 2.820749998092651 C 1.282169938087463 1.965979933738708 1.974529981613159 1.27360999584198 2.829309940338135 1.27360999584198 M 2.829309940338135 5.958620071411133 C 1.103799939155579 5.958620071411133 -0.3000000715255737 4.55482006072998 -0.3000000715255737 2.829309940338135 C -0.3000000715255737 1.103799939155579 1.103799939155579 -0.3000000715255737 2.829309940338135 -0.3000000715255737 C 4.55482006072998 -0.3000000715255737 5.958620071411133 1.103799939155579 5.958620071411133 2.829309940338135 C 5.958620071411133 4.55482006072998 4.55482006072998 5.958620071411133 2.829309940338135 5.958620071411133 Z M 2.829309940338135 1.573609948158264 C 2.141629934310913 1.573609948158264 1.582169890403748 2.13306999206543 1.582169890403748 2.820749998092651 C 1.582169890403748 3.508440017700195 2.141629934310913 4.067909717559814 2.829309940338135 4.067909717559814 C 3.516989946365356 4.067909717559814 4.076449871063232 3.508440017700195 4.076449871063232 2.820749998092651 C 4.076449871063232 2.13306999206543 3.516989946365356 1.573609948158264 2.829309940338135 1.573609948158264 Z" stroke="none" fill="#fff"/>
        </g>
        <path id="Vector-4" d="M0,0H20.515V20.515H0Z" fill="none" opacity="0"/>
        <path id="Vector-5" d="M0,0H20.515V20.515H0Z" fill="none" opacity="0"/>
      </g>
    </g>
  </g>
</svg>
