<svg xmlns="http://www.w3.org/2000/svg" width="30" height="30" viewBox="0 0 30 30">
  <g id="Group_13662" transform="translate(-88 -432)">
    <g id="Group_13665">
      <rect id="Rectangle_2572" width="30" height="30" rx="6" transform="translate(88 432)" fill="#fd724c"/>
    </g>
    <g id="vuesax_outline_flash" transform="translate(97.403 439.522)">
      <g id="flash" transform="translate(0)">
        <g id="Vector" transform="translate(0 0)" fill="#fff">
          <path d="M 4.334309101104736 15.63329315185547 C 4.1893310546875 15.63329315185547 4.054535865783691 15.60797691345215 3.933639526367188 15.55803966522217 C 3.606603384017944 15.4345121383667 3.061109304428101 15.04742240905762 3.061109304428101 13.84168243408203 L 3.061109304428101 9.347672462463379 L 1.526299238204956 9.347672462463379 C 0.4838092923164368 9.347672462463379 0.09573927521705627 8.841822624206543 -0.04280072078108788 8.540303230285645 C -0.1786407232284546 8.236673355102539 -0.3029707074165344 7.611942768096924 0.383609265089035 6.823932647705078 L 5.834519386291504 0.6313529014587402 C 6.290389060974121 0.1129028797149658 6.75809907913208 -0.1500071138143539 7.224589347839355 -0.1500071138143539 C 7.362229347229004 -0.1500071138143539 7.495199203491211 -0.1263171136379242 7.619779109954834 -0.07959712296724319 C 7.946539402008057 0.04294288158416748 8.494709014892578 0.4289728701114655 8.494709014892578 1.637662887573242 L 8.494709014892578 6.131672859191895 L 10.02951908111572 6.131672859191895 C 11.07200908660889 6.131672859191895 11.46007919311523 6.63752269744873 11.59861946105957 6.939043045043945 C 11.73445892333984 7.242672920227051 11.85878944396973 7.867403030395508 11.17220973968506 8.655412673950195 L 5.721299171447754 14.84800243377686 C 5.152419090270996 15.49701309204102 4.653029441833496 15.63329315185547 4.334309101104736 15.63329315185547 Z M 1.271253228187561 7.951822280883789 C 1.331679344177246 7.964503765106201 1.415042281150818 7.974873065948486 1.526299238204956 7.974873065948486 L 3.75110936164856 7.974873065948486 C 4.131579399108887 7.974873065948486 4.441109180450439 8.284402847290039 4.441109180450439 8.664873123168945 L 4.441109180450439 13.8488826751709 C 4.441109180450439 13.98388671875 4.450767517089844 14.08499240875244 4.462839126586914 14.15862274169922 C 4.521836280822754 14.10791015625 4.595145225524902 14.03757667541504 4.681859493255615 13.9377326965332 L 10.1329288482666 7.744962692260742 C 10.20986557006836 7.657036304473877 10.25646495819092 7.586441040039062 10.28456497192383 7.53472375869751 C 10.22413921356201 7.522041797637939 10.14077663421631 7.511672973632812 10.02951908111572 7.511672973632812 L 7.804709434509277 7.511672973632812 C 7.424239158630371 7.511672973632812 7.114709377288818 7.202142715454102 7.114709377288818 6.821672916412354 L 7.114709377288818 1.637662887573242 C 7.117403030395508 1.502336502075195 7.108469009399414 1.400819659233093 7.095502376556396 1.325759887695312 C 7.036075592041016 1.376627326011658 6.961914539337158 1.447534680366516 6.873959064483643 1.548812866210938 L 1.422889232635498 7.741582870483398 C 1.345953345298767 7.829509735107422 1.299354076385498 7.900104999542236 1.271253228187561 7.951822280883789 Z" stroke="none"/>
          <path d="M 4.334309101104736 15.48329257965088 C 4.651109218597412 15.48329257965088 5.097509384155273 15.33209323883057 5.608709335327148 14.74889278411865 L 11.05911922454834 8.556873321533203 C 11.69271945953369 7.829672813415527 11.58471965789795 7.275272846221924 11.46231937408447 7.001672744750977 C 11.339919090271 6.735272884368896 10.99431896209717 6.281672954559326 10.02951908111572 6.281672954559326 L 8.344709396362305 6.281672954559326 L 8.344709396362305 1.637662887573242 C 8.344709396362305 0.52165287733078 7.855109214782715 0.1688528805971146 7.567109107971191 0.06085288152098656 C 7.279111385345459 -0.04714696109294891 6.681510448455811 -0.1047476679086685 5.947109222412109 0.730462908744812 L 0.4966992735862732 6.922472953796387 C -0.1369007229804993 7.649672985076904 -0.02890072204172611 8.204072952270508 0.09349928051233292 8.477672576904297 C 0.2158992737531662 8.744072914123535 0.561499297618866 9.197672843933105 1.526299238204956 9.197672843933105 L 3.211109161376953 9.197672843933105 L 3.211109161376953 13.84168243408203 C 3.211109161376953 14.95769309997559 3.700709342956543 15.31049251556396 3.988709211349487 15.41849327087402 C 4.075109481811523 15.45449256896973 4.190309047698975 15.48329257965088 4.334309101104736 15.48329257965088 M 7.171109199523926 1.076062917709351 C 7.199909210205078 1.126462936401367 7.271909236907959 1.277662873268127 7.26470947265625 1.637662887573242 L 7.26470947265625 6.821672916412354 C 7.26470947265625 7.116872787475586 7.509509086608887 7.361672878265381 7.804709434509277 7.361672878265381 L 10.02951908111572 7.361672878265381 C 10.33191967010498 7.361672878265381 10.46151924133301 7.433672904968262 10.47591972351074 7.440872669219971 C 10.47591972351074 7.469672679901123 10.44711971282959 7.613672733306885 10.24551963806152 7.844072818756104 L 4.795109272003174 14.03608322143555 C 4.557509422302246 14.30968284606934 4.406309127807617 14.38168334960938 4.384709358215332 14.41049289703369 C 4.35590934753418 14.3672924041748 4.291109085083008 14.20889282226562 4.291109085083008 13.8488826751709 L 4.291109085083008 8.664873123168945 C 4.291109085083008 8.369672775268555 4.046309471130371 8.124873161315918 3.75110936164856 8.124873161315918 L 1.526299238204956 8.124873161315918 C 1.223899245262146 8.124873161315918 1.09429931640625 8.052872657775879 1.079899311065674 8.045672416687012 C 1.079899311065674 8.016872406005859 1.108699321746826 7.872872829437256 1.310299277305603 7.642472743988037 L 6.760709285736084 1.450462937355042 C 6.998309135437012 1.176862835884094 7.149509429931641 1.104862928390503 7.171109199523926 1.076062917709351 M 4.334309101104736 15.78329277038574 C 4.170455455780029 15.78329277038574 4.017182350158691 15.75446605682373 3.878626108169556 15.69760322570801 C 3.514982461929321 15.55954170227051 2.911109209060669 15.13518333435059 2.911109209060669 13.84168243408203 L 2.911109209060669 9.497673034667969 L 1.526299238204956 9.497673034667969 C 0.4001492857933044 9.497673034667969 -0.02557072043418884 8.93708324432373 -0.1791007220745087 8.602922439575195 C -0.3301907181739807 8.265242576599121 -0.4708607196807861 7.576292991638184 0.270509272813797 6.725392818450928 L 5.721919059753418 0.5322428941726685 C 6.207469463348389 -0.01995711959898472 6.713069438934326 -0.3000071048736572 7.224589347839355 -0.3000071048736572 C 7.380279064178467 -0.3000071048736572 7.530959129333496 -0.27310711145401 7.672449111938477 -0.2200471162796021 C 8.03555965423584 -0.08387711644172668 8.644709587097168 0.3385328948497772 8.644709587097168 1.637662887573242 L 8.644709587097168 5.981672763824463 L 10.02951908111572 5.981672763824463 C 11.15566921234131 5.981672763824463 11.58138942718506 6.542263031005859 11.73491954803467 6.876422882080078 C 11.88600921630859 7.214102745056152 12.02667903900146 7.903052806854248 11.28530883789062 8.753952980041504 L 5.83389949798584 14.94711303710938 C 5.228179454803467 15.63814258575439 4.684049129486084 15.78329277038574 4.334309101104736 15.78329277038574 Z M 1.5494145154953 7.824872970581055 L 3.75110936164856 7.824872970581055 C 4.21428918838501 7.824872970581055 4.591109275817871 8.201692581176758 4.591109275817871 8.664873123168945 L 4.591109275817871 13.81379985809326 L 10.00640392303467 7.661673069000244 L 7.804709434509277 7.661673069000244 C 7.341529369354248 7.661673069000244 6.964709281921387 7.284852981567383 6.964709281921387 6.821672916412354 L 6.964709281921387 1.672745704650879 L 1.5494145154953 7.824872970581055 Z" stroke="none" fill="#fff"/>
        </g>
      </g>
    </g>
  </g>
</svg>
