<svg xmlns="http://www.w3.org/2000/svg" width="30" height="30" viewBox="0 0 30 30">
  <g id="Group_13663" transform="translate(-208 -391)">
    <rect id="Rectangle_2572" width="30" height="30" rx="6" transform="translate(208 391)" fill="#f0c428"/>
    <g id="vuesax_outline_clock" transform="translate(43 210)">
      <g id="clock" transform="translate(172 188)">
        <g id="Vector" transform="translate(0.833 0.833)" fill="#fff">
          <path d="M 7.166666984558105 14.48333740234375 C 3.132236957550049 14.48333740234375 -0.1500030159950256 11.201096534729 -0.1500030159950256 7.166666984558105 C -0.1500030159950256 3.132236957550049 3.132236957550049 -0.1500030159950256 7.166666984558105 -0.1500030159950256 C 11.201096534729 -0.1500030159950256 14.48333740234375 3.132236957550049 14.48333740234375 7.166666984558105 C 14.48333740234375 11.201096534729 11.201096534729 14.48333740234375 7.166666984558105 14.48333740234375 Z M 7.166666984558105 1.149996995925903 C 3.849066972732544 1.149996995925903 1.149996995925903 3.849066972732544 1.149996995925903 7.166666984558105 C 1.149996995925903 10.48426723480225 3.849066972732544 13.18333721160889 7.166666984558105 13.18333721160889 C 10.48426723480225 13.18333721160889 13.18333721160889 10.48426723480225 13.18333721160889 7.166666984558105 C 13.18333721160889 3.849066972732544 10.48426723480225 1.149996995925903 7.166666984558105 1.149996995925903 Z" stroke="none"/>
          <path d="M 7.166666984558105 14.33333683013916 C 11.11999702453613 14.33333683013916 14.33333683013916 11.11999702453613 14.33333683013916 7.166666984558105 C 14.33333683013916 3.213336944580078 11.11999702453613 -3.015441961906618e-06 7.166666984558105 -3.015441961906618e-06 C 3.213336944580078 -3.015441961906618e-06 -3.015441961906618e-06 3.213336944580078 -3.015441961906618e-06 7.166666984558105 C -3.015441961906618e-06 11.11999702453613 3.213336944580078 14.33333683013916 7.166666984558105 14.33333683013916 M 7.166666984558105 0.9999969601631165 C 10.56666660308838 0.9999969601631165 13.33333683013916 3.766666889190674 13.33333683013916 7.166666984558105 C 13.33333683013916 10.56666660308838 10.56666660308838 13.33333683013916 7.166666984558105 13.33333683013916 C 3.766666889190674 13.33333683013916 0.9999969601631165 10.56666660308838 0.9999969601631165 7.166666984558105 C 0.9999969601631165 3.766666889190674 3.766666889190674 0.9999969601631165 7.166666984558105 0.9999969601631165 M 7.166666984558105 14.63333702087402 C 3.049526929855347 14.63333702087402 -0.3000030219554901 11.28380680084229 -0.3000030219554901 7.166666984558105 C -0.3000030219554901 3.049526929855347 3.049526929855347 -0.3000030219554901 7.166666984558105 -0.3000030219554901 C 11.28380680084229 -0.3000030219554901 14.63333702087402 3.049526929855347 14.63333702087402 7.166666984558105 C 14.63333702087402 11.28380680084229 11.28380680084229 14.63333702087402 7.166666984558105 14.63333702087402 Z M 7.166666984558105 1.299996972084045 C 3.931777000427246 1.299996972084045 1.299996972084045 3.931777000427246 1.299996972084045 7.166666984558105 C 1.299996972084045 10.40155696868896 3.931777000427246 13.0333366394043 7.166666984558105 13.0333366394043 C 10.40155696868896 13.0333366394043 13.0333366394043 10.40155696868896 13.0333366394043 7.166666984558105 C 13.0333366394043 3.931777000427246 10.40155696868896 1.299996972084045 7.166666984558105 1.299996972084045 Z" stroke="none" fill="#fff"/>
        </g>
        <g id="Vector-2" transform="translate(7.26 4.507)" fill="#fff">
          <path d="M 3.213333368301392 6.263336658477783 C 3.089566469192505 6.263336658477783 2.97753381729126 6.230965137481689 2.880280256271362 6.167104244232178 L 0.8164634108543396 4.935476779937744 C 0.2564334273338318 4.600906848907471 -0.1499965637922287 3.885066747665405 -0.1499965637922287 3.233336925506592 L -0.1499965637922287 0.4999968409538269 C -0.1499965637922287 0.1415868550539017 0.1415934413671494 -0.1500031501054764 0.500003457069397 -0.1500031501054764 C 0.8584134578704834 -0.1500031501054764 1.150003433227539 0.1415868550539017 1.150003433227539 0.4999968409538269 L 1.150003433227539 3.233336925506592 C 1.150003433227539 3.419626951217651 1.323753476142883 3.725066900253296 1.481983423233032 3.816946744918823 L 3.550203323364258 5.051187038421631 C 3.699753522872925 5.138416767120361 3.805993318557739 5.280206680297852 3.848073482513428 5.449687004089355 C 3.889563322067261 5.616766929626465 3.86405348777771 5.791697025299072 3.776233434677124 5.942246913909912 C 3.649733543395996 6.144766807556152 3.44019341468811 6.263336658477783 3.213333368301392 6.263336658477783 Z" stroke="none"/>
          <path d="M 3.213333368301392 6.11333703994751 C 3.380003452301025 6.11333703994751 3.546663522720337 6.026666641235352 3.646663427352905 5.866666793823242 C 3.78666353225708 5.626667022705078 3.713333368301392 5.31999683380127 3.473333358764648 5.179996967315674 L 1.406663417816162 3.946666955947876 C 1.200003385543823 3.826666831970215 1.000003457069397 3.473336935043335 1.000003457069397 3.233336925506592 L 1.000003457069397 0.4999968409538269 C 1.000003457069397 0.2266668528318405 0.7733334302902222 -3.148956238874234e-06 0.500003457069397 -3.148956238874234e-06 C 0.2266634404659271 -3.148956238874234e-06 3.435058488321374e-06 0.2266668528318405 3.435058488321374e-06 0.4999968409538269 L 3.435058488321374e-06 3.233336925506592 C 3.435058488321374e-06 3.826666831970215 0.380003422498703 4.499996662139893 0.8933334350585938 4.806666851043701 L 2.96000337600708 6.03999662399292 C 3.040003538131714 6.093337059020996 3.126663446426392 6.11333703994751 3.213333368301392 6.11333703994751 M 3.213333368301392 6.413336753845215 C 3.060883522033691 6.413336753845215 2.922061681747437 6.373260021209717 2.800581693649292 6.294216156005859 L 0.7395934462547302 5.064276695251465 C 0.1371634304523468 4.704376697540283 -0.299996554851532 3.934386968612671 -0.299996554851532 3.233336925506592 L -0.299996554851532 0.4999968409538269 C -0.299996554851532 0.05887684971094131 0.058883436024189 -0.3000031411647797 0.500003457069397 -0.3000031411647797 C 0.9411234259605408 -0.3000031411647797 1.300003409385681 0.05887684971094131 1.300003409385681 0.4999968409538269 L 1.300003409385681 3.233336925506592 C 1.300003409385681 3.367086887359619 1.444283485412598 3.621606826782227 1.557303428649902 3.687236785888672 L 3.627073526382446 4.922386646270752 C 3.810623407363892 5.029437065124512 3.941723346710205 5.20440673828125 3.993653535842896 5.41353702545166 C 4.044613361358643 5.618736743927002 4.013413429260254 5.833346843719482 3.905793428421021 6.017827033996582 L 3.901063442230225 6.0256667137146 C 3.749343395233154 6.268416881561279 3.492253541946411 6.413336753845215 3.213333368301392 6.413336753845215 Z" stroke="none" fill="#fff"/>
        </g>
        <path id="Vector-3" d="M0,0H16V16H0Z" fill="none" opacity="0"/>
      </g>
    </g>
  </g>
</svg>
